<svg version="1.1" id="Layer_1" xmlns="http://www.w3.org/2000/svg" xmlns:xlink="http://www.w3.org/1999/xlink" x="0px" y="0px"
	 width="100%" viewBox="0 0 500 500" enable-background="new 0 0 500 500" xml:space="preserve">
<path fill="#126418" opacity="1.000000" stroke="none" 
	d="
M316.000000,501.000000 
	C210.666687,501.000000 105.833382,501.000000 1.000056,501.000000 
	C1.000037,334.333405 1.000037,167.666794 1.000019,1.000146 
	C167.666565,1.000097 334.333130,1.000097 500.999756,1.000049 
	C500.999847,167.666519 500.999847,334.333038 500.999939,500.999786 
	C439.500000,501.000000 378.000000,501.000000 316.000000,501.000000 
M270.500031,107.152924 
	C246.339523,107.153107 222.179016,107.144539 198.018509,107.159340 
	C191.603439,107.163269 190.983139,107.753212 190.981781,113.818474 
	C190.972137,157.140732 191.036118,200.463181 190.891800,243.784958 
	C190.875931,248.549240 192.315079,250.223511 197.175491,250.202850 
	C232.999008,250.050491 268.823700,250.061523 304.647369,250.195190 
	C309.189514,250.212143 310.867676,248.663101 310.858154,244.128937 
	C310.766693,200.640259 310.814636,157.151306 310.789886,113.662445 
	C310.786621,107.955193 309.922180,107.175529 303.991730,107.160789 
	C293.161255,107.133873 282.330627,107.153030 270.500031,107.152924 
M261.240845,269.917084 
	C252.459549,269.620422 243.679977,269.187225 234.896332,269.076233 
	C229.268631,269.005127 227.835831,270.562408 227.814163,276.225922 
	C227.756317,291.364166 227.749207,306.503052 227.820160,321.641205 
	C227.847610,327.500031 229.319153,328.879272 235.324585,328.951233 
	C241.811584,329.029022 248.300354,328.996277 254.788162,328.967224 
	C271.233704,328.893616 280.092957,313.847351 272.331909,299.389221 
	C271.615021,298.053680 271.398132,295.934570 271.913788,294.534637 
	C275.796844,283.992920 272.416534,275.430939 261.240845,269.917084 
M413.993225,284.523254 
	C413.993408,296.681671 413.972015,308.840118 414.002502,320.998444 
	C414.018616,327.427399 415.513611,329.010162 421.348541,329.003815 
	C427.113556,328.997528 428.492188,327.476807 428.575562,320.844116 
	C428.630585,316.468689 428.585999,312.092041 428.585999,307.653595 
	C429.563324,307.774536 429.777283,307.735260 429.852509,307.819672 
	C435.390350,314.032654 440.867371,320.300751 446.461823,326.462158 
	C450.448151,330.852509 452.493103,330.868835 456.938751,326.901855 
	C460.940521,323.330963 461.062073,321.245117 457.225464,316.798370 
	C454.834473,314.027069 452.353516,311.308929 449.691193,308.802429 
	C446.338104,305.645630 442.758759,302.729126 438.614746,299.134491 
	C445.585114,292.477936 451.552673,287.142944 457.079803,281.385193 
	C461.459045,276.823242 460.868195,274.237579 456.028870,270.261749 
	C452.110626,267.042664 449.177490,268.181122 446.244354,271.605316 
	C440.782990,277.980988 435.209564,284.260651 429.682770,290.580292 
	C428.559021,285.367340 428.687683,280.602203 428.524658,275.847076 
	C428.343811,270.573181 426.411316,268.971863 420.897919,269.075592 
	C415.747101,269.172516 414.128052,270.782928 414.005737,276.039886 
	C413.947662,278.536865 413.994141,281.036285 413.993225,284.523254 
M246.023834,338.512878 
	C238.708572,353.631012 231.354889,368.730774 224.099976,383.877838 
	C221.720291,388.846161 222.595886,390.992523 227.547028,393.428009 
	C232.439468,395.834625 235.326889,395.359253 236.974045,390.137665 
	C239.470398,382.223907 244.459152,380.041901 251.932816,381.266968 
	C252.581329,381.373291 253.282990,381.388214 253.925186,381.264709 
	C261.433472,379.820770 265.924316,382.590057 268.383575,390.082855 
	C270.117371,395.365204 272.945953,395.923340 277.758850,393.589142 
	C282.841949,391.123932 283.722565,388.848846 281.256287,383.704132 
	C274.212158,369.009674 267.142853,354.326752 259.975983,339.691925 
	C256.578156,332.753510 251.671951,332.171234 246.023834,338.512878 
M319.893982,272.581451 
	C314.843872,267.318481 309.782166,267.948212 306.539490,274.540436 
	C299.273621,289.311584 292.145416,304.151062 285.052979,319.006592 
	C282.718597,323.896027 283.663086,326.088226 288.665283,328.496490 
	C293.513702,330.830719 296.237579,330.303131 298.055084,325.017029 
	C300.595398,317.628723 305.053436,314.774109 312.571259,316.259766 
	C313.372375,316.418060 314.255219,316.408600 315.060638,316.261169 
	C322.290192,314.937988 326.756348,317.462006 329.235931,324.747833 
	C331.158875,330.398193 333.905029,330.989960 338.879944,328.528748 
	C343.928131,326.031281 344.730011,323.848419 342.197235,318.582672 
	C334.917938,303.448853 327.563782,288.351013 319.893982,272.581451 
M73.649490,311.362274 
	C84.761475,306.704865 89.978683,298.299011 88.349220,287.678375 
	C86.794724,277.546326 78.685341,269.772430 68.446823,269.181396 
	C61.819874,268.798828 55.153671,269.061859 48.505371,269.096405 
	C44.540691,269.116974 42.185532,271.048492 42.175358,275.146851 
	C42.135738,291.104126 42.120930,307.061798 42.201534,323.018768 
	C42.225998,327.861755 45.470932,328.977692 49.633137,328.993286 
	C53.939655,329.009399 56.759773,327.508514 56.824608,322.767883 
	C56.869171,319.509644 56.833153,316.250305 56.833153,313.173645 
	C62.706299,312.625397 67.806969,312.149231 73.649490,311.362274 
M211.955673,345.719086 
	C208.093124,338.773315 202.020309,334.870117 194.290314,334.227325 
	C187.671585,333.676910 180.972015,334.056366 174.308685,334.099945 
	C170.047607,334.127808 167.955902,336.245789 167.974091,340.633392 
	C168.038345,356.127319 167.953979,371.621826 168.020279,387.115723 
	C168.042526,392.314941 169.765472,393.868378 175.016342,393.959656 
	C180.607513,394.056854 182.311066,392.561829 182.543289,387.099762 
	C182.668427,384.156128 182.565552,381.202820 182.565552,377.767029 
	C191.955170,377.767242 200.883118,378.059814 207.937805,371.324005 
	C214.314270,365.235840 216.005447,356.044617 211.955673,345.719086 
M126.516441,316.252380 
	C134.222168,315.152039 140.205032,316.411499 142.803162,325.303070 
	C144.269684,330.321930 147.200836,330.846954 151.806641,328.698212 
	C156.967041,326.290710 158.014542,323.834045 155.634186,318.877869 
	C148.511581,304.047821 141.458405,289.179321 133.959137,274.540497 
	C132.742645,272.165863 129.387451,269.483521 127.027283,269.489502 
	C124.626801,269.495636 121.219933,272.129913 120.003899,274.508179 
	C112.440491,289.300415 105.419083,304.368744 98.100426,319.287872 
	C96.162735,323.237915 97.121040,325.880646 100.833138,327.961090 
	C106.383606,331.071899 109.505043,330.526825 111.675774,324.319336 
	C114.084061,317.432556 118.168716,314.927185 125.054596,316.248749 
	C125.215073,316.279541 125.386650,316.252502 126.516441,316.252380 
M391.036224,285.199066 
	C396.664154,288.548035 399.199036,287.960907 402.366913,282.574463 
	C404.878479,278.303955 403.942444,275.989380 398.401550,272.769196 
	C385.433563,265.232605 368.203552,268.368866 358.577698,280.018066 
	C349.699493,290.762451 350.196716,308.836121 359.655396,319.189850 
	C370.158600,330.686981 387.172974,333.132690 399.583344,324.929199 
	C404.201935,321.876282 404.679230,319.661652 401.715790,315.034729 
	C398.599945,310.169891 396.826111,309.784363 391.506958,312.821960 
	C385.606079,316.191772 379.718353,315.950623 374.000916,312.494812 
	C368.412689,309.117096 366.518494,303.846954 366.942017,297.565491 
	C367.688019,286.502045 378.900970,280.413757 391.036224,285.199066 
M203.645111,299.218201 
	C207.793304,292.994507 211.980469,286.796326 216.077164,280.538971 
	C219.276505,275.652252 218.786636,273.248596 214.166199,270.181091 
	C209.478897,267.069214 207.172287,267.539368 203.962006,272.531281 
	C199.836182,278.946960 195.830139,285.439667 191.529724,292.285706 
	C186.926498,285.019928 182.595764,278.146149 178.224304,271.298401 
	C175.567566,267.136658 172.325775,267.885986 168.855118,270.214996 
	C165.424255,272.517334 163.370987,275.171265 166.103775,279.295776 
	C168.949570,283.590820 171.495193,288.134033 174.738541,292.106232 
	C181.856750,300.823975 185.655884,310.270508 184.264664,321.810608 
	C183.577301,327.512207 185.882202,329.162292 191.648773,329.123657 
	C197.143143,329.086853 198.625061,327.540894 198.911972,322.025238 
	C199.307053,314.429993 196.823975,306.252228 203.645111,299.218201 
M309.510803,394.011169 
	C316.173370,394.006958 322.836273,393.963226 329.498413,394.013367 
	C333.510590,394.043549 335.080200,392.105591 335.157043,388.161011 
	C335.243988,383.694550 333.438751,381.783386 328.938171,381.884399 
	C321.692108,382.047089 314.439697,381.928101 307.007080,381.928101 
	C307.007080,379.288422 307.007721,377.461853 307.007019,375.635284 
	C307.002502,363.975739 306.919067,352.315430 307.032898,340.657043 
	C307.076477,336.193054 304.901581,334.334869 300.721924,334.077362 
	C294.611206,333.700836 292.454773,335.513275 292.417877,341.705322 
	C292.331543,356.196014 292.354431,370.687622 292.397339,385.178680 
	C292.420105,392.863434 293.640808,393.986389 301.521820,394.009857 
	C303.853699,394.016785 306.185669,394.011078 309.510803,394.011169 
z"/>
<path fill="#BFFD71" opacity="1.000000" stroke="none" 
	d="
M271.000061,107.152946 
	C282.330627,107.153030 293.161255,107.133873 303.991730,107.160789 
	C309.922180,107.175529 310.786621,107.955193 310.789886,113.662445 
	C310.814636,157.151306 310.766693,200.640259 310.858154,244.128937 
	C310.867676,248.663101 309.189514,250.212143 304.647369,250.195190 
	C268.823700,250.061523 232.999008,250.050491 197.175491,250.202850 
	C192.315079,250.223511 190.875931,248.549240 190.891800,243.784958 
	C191.036118,200.463181 190.972137,157.140732 190.981781,113.818474 
	C190.983139,107.753212 191.603439,107.163269 198.018509,107.159340 
	C222.179016,107.144539 246.339523,107.153107 271.000061,107.152946 
M212.544327,119.150742 
	C209.082962,119.150742 205.621613,119.150742 201.784119,119.150742 
	C201.784119,125.850906 201.784119,132.064346 201.784119,138.511765 
	C234.628265,138.511765 267.148621,138.511765 299.760864,138.511765 
	C299.760864,131.963684 299.760864,125.760101 299.760864,119.150787 
	C270.746948,119.150787 242.139847,119.150787 212.544327,119.150742 
M290.494446,210.167267 
	C292.894623,210.167267 295.294800,210.167267 297.706299,210.167267 
	C297.706299,190.543137 297.706299,171.816467 297.706299,152.944397 
	C293.271057,152.944397 289.098114,152.944397 284.908539,152.944397 
	C284.908539,172.143127 284.908539,190.859161 284.908539,209.868362 
	C286.621552,209.979065 288.075195,210.073029 290.494446,210.167267 
M245.318176,224.986435 
	C231.584778,224.986435 217.851379,224.986435 204.123276,224.986435 
	C204.123276,229.860779 204.123276,233.950058 204.123276,238.138580 
	C219.797897,238.138580 235.161942,238.138580 250.856750,238.138580 
	C250.856750,234.904480 250.641693,232.068329 250.909805,229.278580 
	C251.264999,225.582642 249.560272,224.531082 245.318176,224.986435 
M216.021240,157.622498 
	C215.945786,156.035126 215.870331,154.447769 215.787506,152.705475 
	C211.697388,152.705475 207.976807,152.705475 204.080887,152.705475 
	C204.080887,156.834579 204.080887,160.713501 204.080887,164.614075 
	C208.098267,164.614075 211.836365,164.614075 216.021255,164.614075 
	C216.021255,162.429581 216.021255,160.489075 216.021240,157.622498 
M230.988556,154.886978 
	C230.988556,158.124283 230.988556,161.361588 230.988556,164.573761 
	C235.380722,164.573761 238.964005,164.573761 242.778671,164.573761 
	C242.778671,160.537781 242.778671,156.794464 242.778671,151.804077 
	C238.624084,152.576309 234.830215,153.281479 230.988556,154.886978 
M270.193237,181.463684 
	C270.193237,179.536926 270.193237,177.610168 270.193237,175.417816 
	C265.885956,175.417816 262.191162,175.417816 258.237854,175.417816 
	C258.237854,179.425156 258.237854,183.157364 258.237854,187.184753 
	C262.154510,187.184753 265.986053,187.184753 270.193237,187.184753 
	C270.193237,185.327454 270.193237,183.862106 270.193237,181.463684 
M264.476990,164.867447 
	C266.230682,164.867447 267.984375,164.867447 269.932495,164.867447 
	C269.932495,160.466827 269.932495,156.743393 269.932495,152.894562 
	C265.853882,152.894562 262.042847,152.894562 258.334045,152.894562 
	C258.334045,157.074661 258.334045,160.785034 258.334045,164.867416 
	C260.300812,164.867416 261.925110,164.867416 264.476990,164.867447 
M215.673660,186.903259 
	C215.673660,183.166763 215.673660,179.430267 215.673660,175.418030 
	C211.804474,175.418030 208.104935,175.418030 204.201660,175.418030 
	C204.201660,179.512177 204.201660,183.331512 204.201660,187.364594 
	C208.030746,187.364594 211.468124,187.364594 215.673660,186.903259 
M241.951981,187.393860 
	C242.443329,183.494537 242.934662,179.595230 243.463333,175.399689 
	C238.823563,175.399689 235.116409,175.399689 231.332108,175.399689 
	C231.332108,179.509628 231.332108,183.352554 231.332108,187.519592 
	C234.806030,187.519592 237.930267,187.519592 241.951981,187.393860 
M296.310272,237.139420 
	C297.093658,233.306534 297.877075,229.473648 298.718628,225.356323 
	C293.695770,225.356323 289.853027,225.356323 286.163818,225.356323 
	C286.163818,229.443649 286.163818,233.171249 286.163818,237.157928 
	C289.441376,237.157928 292.396698,237.157928 296.310272,237.139420 
M264.754517,237.154266 
	C267.817627,237.154266 270.880737,237.154266 273.735657,237.154266 
	C273.735657,232.609268 273.735657,228.902145 273.735657,225.338318 
	C269.729065,225.338318 266.158447,225.338318 261.391083,225.338318 
	C262.270813,229.588669 263.048279,233.344818 264.754517,237.154266 
M270.139343,208.312439 
	C270.139343,204.904083 270.139343,201.495728 270.139343,198.134155 
	C265.775269,198.134155 262.053772,198.134155 258.233398,198.134155 
	C258.233398,202.153763 258.233398,205.877975 258.233398,210.284210 
	C262.334015,209.929794 266.169006,209.598358 270.139343,208.312439 
M234.626144,197.848831 
	C232.349701,197.643982 230.746628,198.017868 230.962555,200.967468 
	C231.175797,203.880142 231.009155,206.820618 231.009155,209.752899 
	C235.311584,209.752899 238.912323,209.752899 242.717819,209.752899 
	C242.717819,205.780518 242.717819,202.051590 242.717819,197.847351 
	C240.163422,197.847351 237.868149,197.847351 234.626144,197.848831 
M207.591980,197.848541 
	C204.954849,197.512405 203.558411,198.329971 203.798706,201.330276 
	C204.018204,204.071014 203.845230,206.843185 203.845230,209.703629 
	C208.188507,209.703629 211.899216,209.703629 215.694275,209.703629 
	C215.694275,205.693451 215.694275,201.979828 215.694275,197.847290 
	C213.114349,197.847290 210.829895,197.847290 207.591980,197.848541 
z"/>
<path fill="#BEFD71" opacity="1.000000" stroke="none" 
	d="
M261.628906,270.022278 
	C272.416534,275.430939 275.796844,283.992920 271.913788,294.534637 
	C271.398132,295.934570 271.615021,298.053680 272.331909,299.389221 
	C280.092957,313.847351 271.233704,328.893616 254.788162,328.967224 
	C248.300354,328.996277 241.811584,329.029022 235.324585,328.951233 
	C229.319153,328.879272 227.847610,327.500031 227.820160,321.641205 
	C227.749207,306.503052 227.756317,291.364166 227.814163,276.225922 
	C227.835831,270.562408 229.268631,269.005127 234.896332,269.076233 
	C243.679977,269.187225 252.459549,269.620422 261.628906,270.022278 
M251.144760,283.577332 
	C248.240082,283.577332 245.335403,283.577332 242.464874,283.577332 
	C242.464874,294.220551 242.464874,303.976929 242.464874,314.349121 
	C246.519119,314.349121 250.298508,314.247620 254.069992,314.377136 
	C257.965179,314.510956 260.598450,313.330872 260.720764,308.946686 
	C260.839172,304.700195 258.257538,303.814240 254.624344,303.556915 
	C249.403702,303.187164 247.617249,300.794006 248.378250,296.234100 
	C248.983841,292.605377 251.475281,291.929352 254.566162,291.868469 
	C257.178253,291.817078 259.062592,290.937378 259.027313,287.785156 
	C258.992493,284.672638 257.116180,283.832642 254.514969,283.676849 
	C253.685242,283.627197 252.853394,283.613464 251.144760,283.577332 
z"/>
<path fill="#BEFC70" opacity="1.000000" stroke="none" 
	d="
M413.993225,284.028931 
	C413.994141,281.036285 413.947662,278.536865 414.005737,276.039886 
	C414.128052,270.782928 415.747101,269.172516 420.897919,269.075592 
	C426.411316,268.971863 428.343811,270.573181 428.524658,275.847076 
	C428.687683,280.602203 428.559021,285.367340 429.682770,290.580292 
	C435.209564,284.260651 440.782990,277.980988 446.244354,271.605316 
	C449.177490,268.181122 452.110626,267.042664 456.028870,270.261749 
	C460.868195,274.237579 461.459045,276.823242 457.079803,281.385193 
	C451.552673,287.142944 445.585114,292.477936 438.614746,299.134491 
	C442.758759,302.729126 446.338104,305.645630 449.691193,308.802429 
	C452.353516,311.308929 454.834473,314.027069 457.225464,316.798370 
	C461.062073,321.245117 460.940521,323.330963 456.938751,326.901855 
	C452.493103,330.868835 450.448151,330.852509 446.461823,326.462158 
	C440.867371,320.300751 435.390350,314.032654 429.852509,307.819672 
	C429.777283,307.735260 429.563324,307.774536 428.585999,307.653595 
	C428.585999,312.092041 428.630585,316.468689 428.575562,320.844116 
	C428.492188,327.476807 427.113556,328.997528 421.348541,329.003815 
	C415.513611,329.010162 414.018616,327.427399 414.002502,320.998444 
	C413.972015,308.840118 413.993408,296.681671 413.993225,284.028931 
z"/>
<path fill="#BEFC71" opacity="1.000000" stroke="none" 
	d="
M246.209656,338.193787 
	C251.671951,332.171234 256.578156,332.753510 259.975983,339.691925 
	C267.142853,354.326752 274.212158,369.009674 281.256287,383.704132 
	C283.722565,388.848846 282.841949,391.123932 277.758850,393.589142 
	C272.945953,395.923340 270.117371,395.365204 268.383575,390.082855 
	C265.924316,382.590057 261.433472,379.820770 253.925186,381.264709 
	C253.282990,381.388214 252.581329,381.373291 251.932816,381.266968 
	C244.459152,380.041901 239.470398,382.223907 236.974045,390.137665 
	C235.326889,395.359253 232.439468,395.834625 227.547028,393.428009 
	C222.595886,390.992523 221.720291,388.846161 224.099976,383.877838 
	C231.354889,368.730774 238.708572,353.631012 246.209656,338.193787 
M254.245422,361.344269 
	C253.723572,360.568604 253.201736,359.792938 252.410065,358.616211 
	C250.724411,362.198730 249.244034,365.345001 247.566147,368.911041 
	C251.378143,368.911041 254.296768,368.911041 257.823730,368.911041 
	C256.643188,366.359039 255.630081,364.168976 254.245422,361.344269 
z"/>
<path fill="#BEFC71" opacity="1.000000" stroke="none" 
	d="
M320.066528,272.910248 
	C327.563782,288.351013 334.917938,303.448853 342.197235,318.582672 
	C344.730011,323.848419 343.928131,326.031281 338.879944,328.528748 
	C333.905029,330.989960 331.158875,330.398193 329.235931,324.747833 
	C326.756348,317.462006 322.290192,314.937988 315.060638,316.261169 
	C314.255219,316.408600 313.372375,316.418060 312.571259,316.259766 
	C305.053436,314.774109 300.595398,317.628723 298.055084,325.017029 
	C296.237579,330.303131 293.513702,330.830719 288.665283,328.496490 
	C283.663086,326.088226 282.718597,323.896027 285.052979,319.006592 
	C292.145416,304.151062 299.273621,289.311584 306.539490,274.540436 
	C309.782166,267.948212 314.843872,267.318481 320.066528,272.910248 
M310.684143,299.385834 
	C310.065857,300.768829 309.447571,302.151825 308.665894,303.900269 
	C312.399628,303.900269 315.310333,303.900269 318.923431,303.900269 
	C317.160339,300.292908 315.614227,297.129486 313.713837,293.241211 
	C312.453125,295.764374 311.723267,297.225189 310.684143,299.385834 
z"/>
<path fill="#BDFB70" opacity="1.000000" stroke="none" 
	d="
M73.278564,311.517700 
	C67.806969,312.149231 62.706299,312.625397 56.833153,313.173645 
	C56.833153,316.250305 56.869171,319.509644 56.824608,322.767883 
	C56.759773,327.508514 53.939655,329.009399 49.633137,328.993286 
	C45.470932,328.977692 42.225998,327.861755 42.201534,323.018768 
	C42.120930,307.061798 42.135738,291.104126 42.175358,275.146851 
	C42.185532,271.048492 44.540691,269.116974 48.505371,269.096405 
	C55.153671,269.061859 61.819874,268.798828 68.446823,269.181396 
	C78.685341,269.772430 86.794724,277.546326 88.349220,287.678375 
	C89.978683,298.299011 84.761475,306.704865 73.278564,311.517700 
M70.364914,284.650970 
	C66.040398,284.254517 61.715881,283.858093 57.114681,283.436310 
	C57.114681,288.756836 57.114681,293.127441 57.114681,297.997040 
	C60.289600,297.997040 63.389462,298.593445 66.106979,297.829590 
	C68.834740,297.062897 72.040459,295.494598 73.475372,293.270355 
	C75.227692,290.554138 74.105331,287.177216 70.364914,284.650970 
z"/>
<path fill="#BDFC70" opacity="1.000000" stroke="none" 
	d="
M212.111694,346.061371 
	C216.005447,356.044617 214.314270,365.235840 207.937805,371.324005 
	C200.883118,378.059814 191.955170,377.767242 182.565552,377.767029 
	C182.565552,381.202820 182.668427,384.156128 182.543289,387.099762 
	C182.311066,392.561829 180.607513,394.056854 175.016342,393.959656 
	C169.765472,393.868378 168.042526,392.314941 168.020279,387.115723 
	C167.953979,371.621826 168.038345,356.127319 167.974091,340.633392 
	C167.955902,336.245789 170.047607,334.127808 174.308685,334.099945 
	C180.972015,334.056366 187.671585,333.676910 194.290314,334.227325 
	C202.020309,334.870117 208.093124,338.773315 212.111694,346.061371 
M182.590027,352.554138 
	C182.590027,355.949982 182.590027,359.345825 182.590027,362.951202 
	C186.755615,362.951202 190.089737,363.240845 193.353836,362.886169 
	C198.812866,362.292969 201.592102,356.651184 198.879150,352.166229 
	C196.871109,348.846619 185.896484,347.060577 182.932007,349.653168 
	C182.553635,349.984039 182.700089,350.915039 182.590027,352.554138 
z"/>
<path fill="#BEFD71" opacity="1.000000" stroke="none" 
	d="
M126.034744,316.252441 
	C125.386650,316.252502 125.215073,316.279541 125.054596,316.248749 
	C118.168716,314.927185 114.084061,317.432556 111.675774,324.319336 
	C109.505043,330.526825 106.383606,331.071899 100.833138,327.961090 
	C97.121040,325.880646 96.162735,323.237915 98.100426,319.287872 
	C105.419083,304.368744 112.440491,289.300415 120.003899,274.508179 
	C121.219933,272.129913 124.626801,269.495636 127.027283,269.489502 
	C129.387451,269.483521 132.742645,272.165863 133.959137,274.540497 
	C141.458405,289.179321 148.511581,304.047821 155.634186,318.877869 
	C158.014542,323.834045 156.967041,326.290710 151.806641,328.698212 
	C147.200836,330.846954 144.269684,330.321930 142.803162,325.303070 
	C140.205032,316.411499 134.222168,315.152039 126.034744,316.252441 
M122.430321,303.797516 
	C125.479454,303.797516 128.528580,303.797516 132.173553,303.797516 
	C130.410919,300.279968 128.855408,297.175781 126.878410,293.230438 
	C125.025757,297.139923 123.635307,300.074036 122.430321,303.797516 
z"/>
<path fill="#BDFC70" opacity="1.000000" stroke="none" 
	d="
M390.694885,285.019928 
	C378.900970,280.413757 367.688019,286.502045 366.942017,297.565491 
	C366.518494,303.846954 368.412689,309.117096 374.000916,312.494812 
	C379.718353,315.950623 385.606079,316.191772 391.506958,312.821960 
	C396.826111,309.784363 398.599945,310.169891 401.715790,315.034729 
	C404.679230,319.661652 404.201935,321.876282 399.583344,324.929199 
	C387.172974,333.132690 370.158600,330.686981 359.655396,319.189850 
	C350.196716,308.836121 349.699493,290.762451 358.577698,280.018066 
	C368.203552,268.368866 385.433563,265.232605 398.401550,272.769196 
	C403.942444,275.989380 404.878479,278.303955 402.366913,282.574463 
	C399.199036,287.960907 396.664154,288.548035 390.694885,285.019928 
z"/>
<path fill="#BEFC70" opacity="1.000000" stroke="none" 
	d="
M203.431198,299.515656 
	C196.823975,306.252228 199.307053,314.429993 198.911972,322.025238 
	C198.625061,327.540894 197.143143,329.086853 191.648773,329.123657 
	C185.882202,329.162292 183.577301,327.512207 184.264664,321.810608 
	C185.655884,310.270508 181.856750,300.823975 174.738541,292.106232 
	C171.495193,288.134033 168.949570,283.590820 166.103775,279.295776 
	C163.370987,275.171265 165.424255,272.517334 168.855118,270.214996 
	C172.325775,267.885986 175.567566,267.136658 178.224304,271.298401 
	C182.595764,278.146149 186.926498,285.019928 191.529724,292.285706 
	C195.830139,285.439667 199.836182,278.946960 203.962006,272.531281 
	C207.172287,267.539368 209.478897,267.069214 214.166199,270.181091 
	C218.786636,273.248596 219.276505,275.652252 216.077164,280.538971 
	C211.980469,286.796326 207.793304,292.994507 203.431198,299.515656 
z"/>
<path fill="#BDFB70" opacity="1.000000" stroke="none" 
	d="
M309.014191,394.011169 
	C306.185669,394.011078 303.853699,394.016785 301.521820,394.009857 
	C293.640808,393.986389 292.420105,392.863434 292.397339,385.178680 
	C292.354431,370.687622 292.331543,356.196014 292.417877,341.705322 
	C292.454773,335.513275 294.611206,333.700836 300.721924,334.077362 
	C304.901581,334.334869 307.076477,336.193054 307.032898,340.657043 
	C306.919067,352.315430 307.002502,363.975739 307.007019,375.635284 
	C307.007721,377.461853 307.007080,379.288422 307.007080,381.928101 
	C314.439697,381.928101 321.692108,382.047089 328.938171,381.884399 
	C333.438751,381.783386 335.243988,383.694550 335.157043,388.161011 
	C335.080200,392.105591 333.510590,394.043549 329.498413,394.013367 
	C322.836273,393.963226 316.173370,394.006958 309.014191,394.011169 
z"/>
<path fill="#17681A" opacity="1.000000" stroke="none" 
	d="
M213.038544,119.150764 
	C242.139847,119.150787 270.746948,119.150787 299.760864,119.150787 
	C299.760864,125.760101 299.760864,131.963684 299.760864,138.511765 
	C267.148621,138.511765 234.628265,138.511765 201.784119,138.511765 
	C201.784119,132.064346 201.784119,125.850906 201.784119,119.150742 
	C205.621613,119.150742 209.082962,119.150742 213.038544,119.150764 
z"/>
<path fill="#156619" opacity="1.000000" stroke="none" 
	d="
M290.011627,210.167114 
	C288.075195,210.073029 286.621552,209.979065 284.908539,209.868362 
	C284.908539,190.859161 284.908539,172.143127 284.908539,152.944397 
	C289.098114,152.944397 293.271057,152.944397 297.706299,152.944397 
	C297.706299,171.816467 297.706299,190.543137 297.706299,210.167267 
	C295.294800,210.167267 292.894623,210.167267 290.011627,210.167114 
z"/>
<path fill="#196A1C" opacity="1.000000" stroke="none" 
	d="
M245.794128,224.986526 
	C249.560272,224.531082 251.264999,225.582642 250.909805,229.278580 
	C250.641693,232.068329 250.856750,234.904480 250.856750,238.138580 
	C235.161942,238.138580 219.797897,238.138580 204.123276,238.138580 
	C204.123276,233.950058 204.123276,229.860779 204.123276,224.986435 
	C217.851379,224.986435 231.584778,224.986435 245.794128,224.986526 
z"/>
<path fill="#0A0D06" opacity="1.000000" stroke="none" 
	d="
M216.021240,158.085541 
	C216.021255,160.489075 216.021255,162.429581 216.021255,164.614075 
	C211.836365,164.614075 208.098267,164.614075 204.080887,164.614075 
	C204.080887,160.713501 204.080887,156.834579 204.080887,152.705475 
	C207.976807,152.705475 211.697388,152.705475 215.787506,152.705475 
	C215.870331,154.447769 215.945786,156.035126 216.021240,158.085541 
z"/>
<path fill="#1C6C1D" opacity="1.000000" stroke="none" 
	d="
M231.012451,154.436829 
	C234.830215,153.281479 238.624084,152.576309 242.778671,151.804077 
	C242.778671,156.794464 242.778671,160.537781 242.778671,164.573761 
	C238.964005,164.573761 235.380722,164.573761 230.988556,164.573761 
	C230.988556,161.361588 230.988556,158.124283 231.012451,154.436829 
z"/>
<path fill="#1C6C1D" opacity="1.000000" stroke="none" 
	d="
M270.193237,181.930206 
	C270.193237,183.862106 270.193237,185.327454 270.193237,187.184753 
	C265.986053,187.184753 262.154510,187.184753 258.237854,187.184753 
	C258.237854,183.157364 258.237854,179.425156 258.237854,175.417816 
	C262.191162,175.417816 265.885956,175.417816 270.193237,175.417816 
	C270.193237,177.610168 270.193237,179.536926 270.193237,181.930206 
z"/>
<path fill="#1C6C1D" opacity="1.000000" stroke="none" 
	d="
M264.013214,164.867432 
	C261.925110,164.867416 260.300812,164.867416 258.334045,164.867416 
	C258.334045,160.785034 258.334045,157.074661 258.334045,152.894562 
	C262.042847,152.894562 265.853882,152.894562 269.932495,152.894562 
	C269.932495,156.743393 269.932495,160.466827 269.932495,164.867447 
	C267.984375,164.867447 266.230682,164.867447 264.013214,164.867432 
z"/>
<path fill="#1C6C1D" opacity="1.000000" stroke="none" 
	d="
M215.289581,187.133926 
	C211.468124,187.364594 208.030746,187.364594 204.201660,187.364594 
	C204.201660,183.331512 204.201660,179.512177 204.201660,175.418030 
	C208.104935,175.418030 211.804474,175.418030 215.673660,175.418030 
	C215.673660,179.430267 215.673660,183.166763 215.289581,187.133926 
z"/>
<path fill="#0A0D06" opacity="1.000000" stroke="none" 
	d="
M241.503235,187.456726 
	C237.930267,187.519592 234.806030,187.519592 231.332108,187.519592 
	C231.332108,183.352554 231.332108,179.509628 231.332108,175.399689 
	C235.116409,175.399689 238.823563,175.399689 243.463333,175.399689 
	C242.934662,179.595230 242.443329,183.494537 241.503235,187.456726 
z"/>
<path fill="#000000" opacity="1.000000" stroke="none" 
	d="
M295.831146,237.148682 
	C292.396698,237.157928 289.441376,237.157928 286.163818,237.157928 
	C286.163818,233.171249 286.163818,229.443649 286.163818,225.356323 
	C289.853027,225.356323 293.695770,225.356323 298.718628,225.356323 
	C297.877075,229.473648 297.093658,233.306534 295.831146,237.148682 
z"/>
<path fill="#156619" opacity="1.000000" stroke="none" 
	d="
M264.290100,237.127625 
	C263.048279,233.344818 262.270813,229.588669 261.391083,225.338318 
	C266.158447,225.338318 269.729065,225.338318 273.735657,225.338318 
	C273.735657,228.902145 273.735657,232.609268 273.735657,237.154266 
	C270.880737,237.154266 267.817627,237.154266 264.290100,237.127625 
z"/>
<path fill="#000000" opacity="1.000000" stroke="none" 
	d="
M270.071655,208.789673 
	C266.169006,209.598358 262.334015,209.929794 258.233398,210.284210 
	C258.233398,205.877975 258.233398,202.153763 258.233398,198.134155 
	C262.053772,198.134155 265.775269,198.134155 270.139343,198.134155 
	C270.139343,201.495728 270.139343,204.904083 270.071655,208.789673 
z"/>
<path fill="#126418" opacity="1.000000" stroke="none" 
	d="
M235.099518,197.848083 
	C237.868149,197.847351 240.163422,197.847351 242.717819,197.847351 
	C242.717819,202.051590 242.717819,205.780518 242.717819,209.752899 
	C238.912323,209.752899 235.311584,209.752899 231.009155,209.752899 
	C231.009155,206.820618 231.175797,203.880142 230.962555,200.967468 
	C230.746628,198.017868 232.349701,197.643982 235.099518,197.848083 
z"/>
<path fill="#126418" opacity="1.000000" stroke="none" 
	d="
M208.068710,197.847916 
	C210.829895,197.847290 213.114349,197.847290 215.694275,197.847290 
	C215.694275,201.979828 215.694275,205.693451 215.694275,209.703629 
	C211.899216,209.703629 208.188507,209.703629 203.845230,209.703629 
	C203.845230,206.843185 204.018204,204.071014 203.798706,201.330276 
	C203.558411,198.329971 204.954849,197.512405 208.068710,197.847916 
z"/>
<path fill="#186A1B" opacity="1.000000" stroke="none" 
	d="
M251.583633,283.580322 
	C252.853394,283.613464 253.685242,283.627197 254.514969,283.676849 
	C257.116180,283.832642 258.992493,284.672638 259.027313,287.785156 
	C259.062592,290.937378 257.178253,291.817078 254.566162,291.868469 
	C251.475281,291.929352 248.983841,292.605377 248.378250,296.234100 
	C247.617249,300.794006 249.403702,303.187164 254.624344,303.556915 
	C258.257538,303.814240 260.839172,304.700195 260.720764,308.946686 
	C260.598450,313.330872 257.965179,314.510956 254.069992,314.377136 
	C250.298508,314.247620 246.519119,314.349121 242.464874,314.349121 
	C242.464874,303.976929 242.464874,294.220551 242.464874,283.577332 
	C245.335403,283.577332 248.240082,283.577332 251.583633,283.580322 
z"/>
<path fill="#17681A" opacity="1.000000" stroke="none" 
	d="
M254.431213,361.661591 
	C255.630081,364.168976 256.643188,366.359039 257.823730,368.911041 
	C254.296768,368.911041 251.378143,368.911041 247.566147,368.911041 
	C249.244034,365.345001 250.724411,362.198730 252.410065,358.616211 
	C253.201736,359.792938 253.723572,360.568604 254.431213,361.661591 
z"/>
<path fill="#17681A" opacity="1.000000" stroke="none" 
	d="
M310.838745,299.035889 
	C311.723267,297.225189 312.453125,295.764374 313.713837,293.241211 
	C315.614227,297.129486 317.160339,300.292908 318.923431,303.900269 
	C315.310333,303.900269 312.399628,303.900269 308.665894,303.900269 
	C309.447571,302.151825 310.065857,300.768829 310.838745,299.035889 
z"/>
<path fill="#146519" opacity="1.000000" stroke="none" 
	d="
M70.729637,284.856171 
	C74.105331,287.177216 75.227692,290.554138 73.475372,293.270355 
	C72.040459,295.494598 68.834740,297.062897 66.106979,297.829590 
	C63.389462,298.593445 60.289600,297.997040 57.114681,297.997040 
	C57.114681,293.127441 57.114681,288.756836 57.114681,283.436310 
	C61.715881,283.858093 66.040398,284.254517 70.729637,284.856171 
z"/>
<path fill="#156619" opacity="1.000000" stroke="none" 
	d="
M182.596710,352.061096 
	C182.700089,350.915039 182.553635,349.984039 182.932007,349.653168 
	C185.896484,347.060577 196.871109,348.846619 198.879150,352.166229 
	C201.592102,356.651184 198.812866,362.292969 193.353836,362.886169 
	C190.089737,363.240845 186.755615,362.951202 182.590027,362.951202 
	C182.590027,359.345825 182.590027,355.949982 182.596710,352.061096 
z"/>
<path fill="#1C6C1D" opacity="1.000000" stroke="none" 
	d="
M122.337593,303.402832 
	C123.635307,300.074036 125.025757,297.139923 126.878410,293.230438 
	C128.855408,297.175781 130.410919,300.279968 132.173553,303.797516 
	C128.528580,303.797516 125.479454,303.797516 122.337593,303.402832 
z"/>
</svg>